<svg width="36" height="41" viewBox="0 0 36 41" fill="none" xmlns="http://www.w3.org/2000/svg">
<g id="Group 4">
<path id="Vector" d="M27.6227 29.2286L18.0001 22.5167M18.0001 38.9317C22.3536 38.9317 26.5289 37.2023 29.6073 34.1239C32.6857 31.0455 34.4151 26.8702 34.4151 22.5167C34.4151 18.1631 32.6857 13.9879 29.6073 10.9094C26.5289 7.831 22.3536 6.10156 18.0001 6.10156C13.6465 6.10156 9.47126 7.831 6.39283 10.9094C3.3144 13.9879 1.58496 18.1631 1.58496 22.5167C1.58496 26.8702 3.3144 31.0455 6.39283 34.1239C9.47126 37.2023 13.6465 38.9317 18.0001 38.9317Z" stroke="#E4028D" stroke-width="3" stroke-linecap="round" stroke-linejoin="round"/>
<path id="Vector_2" d="M2.25049 5.81543L8.6041 1.77592" stroke="#E4028D" stroke-width="3" stroke-linecap="round" stroke-linejoin="round"/>
<path id="Vector_3" d="M26.8732 1.77539L33.2266 5.81518" stroke="#E4028D" stroke-width="3" stroke-linecap="round" stroke-linejoin="round"/>
</g>
</svg>
