<svg width="60" height="61" viewBox="0 0 60 61" fill="none" xmlns="http://www.w3.org/2000/svg">
<g id="echange - contact">
<path id="Vector" d="M17.1442 46.5027C18.9479 47.6034 21.0643 48.0783 23.1654 47.8536C25.2664 47.629 27.2346 46.7173 28.7647 45.2601C30.2949 43.8028 31.3014 41.8814 31.6282 39.7938C31.9551 37.7063 31.584 35.5692 30.5725 33.714C29.561 31.8588 27.9657 30.3892 26.0338 29.5331C24.102 28.677 21.9417 28.4822 19.8879 28.979C17.8341 29.4758 16.0016 30.6364 14.6747 32.2807C13.3477 33.9251 12.6003 35.9614 12.5486 38.0738L9.61102 41.3413L13.7162 42.9069C14.5218 44.3868 15.7044 45.6274 17.1442 46.5027Z" stroke="#09AA97" stroke-width="3" stroke-linecap="round" stroke-linejoin="round"/>
<path id="Vector_2" d="M36.9982 38.9483C38.6693 38.6793 40.277 38.1067 41.7419 37.2588L48.0249 38.4282L46.8556 32.1451C47.8823 30.364 48.503 28.3782 48.6734 26.3294C48.8438 24.2807 48.5596 22.2196 47.8413 20.2934C47.1229 18.3671 45.988 16.6233 44.5177 15.1864C43.0474 13.7496 41.2779 12.6551 39.3356 11.9813C37.3934 11.3074 35.3263 11.0708 33.282 11.2883C31.2377 11.5058 29.2666 12.1721 27.5096 13.2395C25.7527 14.307 24.2531 15.7492 23.118 17.4633C21.9829 19.1774 21.2404 21.1209 20.9434 23.1552" stroke="#09AA97" stroke-width="3" stroke-linecap="round" stroke-linejoin="round"/>
<path id="Vector 60" d="M11.4859 10.5467C11.0978 10.1816 10.4175 10.3063 9.96656 10.4735C8.32424 11.0827 7.42668 12.5968 7.75733 14.3633C8.14066 16.4112 9.99161 17.1575 11.8045 17.5335C12.1974 17.615 13.2228 17.7194 13.2502 17.063C13.2852 16.2255 11.9415 16.5016 11.5111 16.5616C9.64553 16.8216 8.45608 18.1148 8.9713 20.063C9.66681 22.693 12.3263 24.2728 14.7615 25.0256C14.9516 25.0844 17.5661 25.6824 17.1535 25.4329" stroke="#6DDDD0" stroke-linecap="round"/>
</g>
</svg>
