<svg width="60" height="61" viewBox="0 0 60 61" fill="none" xmlns="http://www.w3.org/2000/svg">
<g id="Diamant">
<path id="Polygon 1" d="M30.0951 50.1481L9.71008 20.5544M30.0951 50.1481L50.8349 20.5544M30.0951 50.1481L22.1558 20.5544M30.0951 50.1481L37.8481 20.5544M9.71008 20.5544L12.9568 13.0215M9.71008 20.5544H22.1558M50.8349 20.5544L47.0471 13.0215M50.8349 20.5544H37.8481M12.9568 13.0215L22.1558 20.5544M12.9568 13.0215H30.002M47.0471 13.0215L37.8481 20.5544M47.0471 13.0215H30.002M22.1558 20.5544H37.8481M22.1558 20.5544L30.002 13.0215M37.8481 20.5544L30.002 13.0215" stroke="#FEBA36" stroke-width="3" stroke-linejoin="round"/>
<path id="Vector 49" d="M7.51697 4.58984C8.63186 5.91965 9.74932 7.24713 10.8702 8.57181" stroke="#FFE7B8" stroke-linecap="round"/>
<path id="Vector 50" d="M3.32544 7C5.38475 8.11637 7.47521 9.19166 9.50796 10.3532" stroke="#FFE7B8" stroke-linecap="round"/>
<path id="Vector 51" d="M2.17273 13.8103C3.82868 13.2056 5.49165 12.6154 7.13272 11.9707C7.26293 11.9195 7.25668 11.9207 7.30736 11.8193" stroke="#FFE7B8" stroke-linecap="round"/>
<path id="Vector 52" d="M42.4115 43.3614C42.4115 42.6821 42.3657 41.9838 42.4814 41.3122C42.672 40.2053 43.1902 39.8731 44.2395 39.6123C44.5007 39.5473 47.1876 39.2418 47.1619 39.0534C47.1168 38.7222 46.7147 38.4773 46.475 38.3082C45.9738 37.9548 45.5419 37.5829 45.2583 37.0275C44.777 36.0851 44.8738 34.9724 45.5552 34.1458C45.9595 33.6553 46.5269 33.1729 47.1212 32.9291C47.2904 32.8597 47.3875 32.9229 47.453 32.7428C48.1568 30.8074 49.8854 29.9207 51.8425 29.5293" stroke="#FFE7B8" stroke-linecap="round"/>
</g>
</svg>
