<svg width="32" height="32" viewBox="0 0 32 32" fill="none" xmlns="http://www.w3.org/2000/svg">
<g id="Icon">
<path id="Vector" d="M22.8354 22.3644L22.3639 22.8358C22.1036 23.0961 21.6815 23.0961 21.4211 22.8358L16 17.4146L10.5788 22.8357C10.3185 23.0961 9.89638 23.0961 9.63603 22.8357L9.16462 22.3643C8.90427 22.104 8.90427 21.6819 9.16462 21.4215L14.5858 16.0004L9.16462 10.5792C8.90427 10.3189 8.90427 9.89675 9.16462 9.6364L9.63602 9.165C9.89637 8.90465 10.3185 8.90465 10.5788 9.165L16 14.5862L21.4211 9.16499C21.6815 8.90464 22.1036 8.90464 22.3639 9.16499L22.8354 9.63639C23.0957 9.89674 23.0957 10.3189 22.8354 10.5792L17.4142 16.0004L22.8354 21.4215C23.0957 21.6819 23.0957 22.104 22.8354 22.3644Z" fill="white"/>
</g>
</svg>
