<svg width="26" height="26" viewBox="0 0 26 26" fill="none" xmlns="http://www.w3.org/2000/svg">
<g id="Icon / LinkedIn">
<path id="Vector" fill-rule="evenodd" clip-rule="evenodd" d="M4.83805 4.24658C3.97171 4.24658 3.26941 4.94888 3.26941 5.81522V21.5016C3.26941 22.3679 3.97171 23.0702 4.83805 23.0702H20.5244C21.3907 23.0702 22.093 22.3679 22.093 21.5016V5.81522C22.093 4.94888 21.3907 4.24658 20.5244 4.24658H4.83805ZM9.04279 8.43246C9.04867 9.43246 8.30014 10.0486 7.4119 10.0442C6.57512 10.0398 5.84571 9.37364 5.85012 8.43393C5.85453 7.5501 6.55307 6.8398 7.46043 6.86039C8.38102 6.88098 9.04867 7.55599 9.04279 8.43246ZM12.9737 11.3177H10.3384H10.337V20.2693H13.1222V20.0604C13.1222 19.6631 13.1219 19.2658 13.1216 18.8683C13.1208 17.8081 13.1198 16.7467 13.1253 15.6869C13.1267 15.4295 13.1384 15.1619 13.2046 14.9162C13.4531 13.9986 14.2782 13.406 15.1988 13.5516C15.79 13.6442 16.1811 13.9869 16.3458 14.5443C16.4473 14.8927 16.4929 15.2677 16.4973 15.631C16.5092 16.7265 16.5076 17.8221 16.5059 18.9177C16.5052 19.3044 16.5046 19.6914 16.5046 20.0781V20.2678H19.2988V20.0531C19.2988 19.5804 19.2986 19.1078 19.2983 18.6353C19.2977 17.4541 19.2971 16.2729 19.3002 15.0913C19.3017 14.5574 19.2444 14.031 19.1135 13.5148C18.9179 12.7471 18.5135 12.1118 17.8562 11.6531C17.39 11.3266 16.8782 11.1163 16.3061 11.0927C16.241 11.09 16.1753 11.0865 16.1093 11.0829C15.8168 11.0671 15.5195 11.051 15.2399 11.1074C14.4399 11.2677 13.737 11.6339 13.2061 12.2795C13.1444 12.3535 13.0841 12.4287 12.994 12.5409L12.9737 12.5663V11.3177ZM6.07375 20.2722H8.84583V11.3236H6.07375V20.2722Z" fill="#20282C"/>
</g>
</svg>
