<svg width="100" height="100" viewBox="0 0 100 100" fill="none" xmlns="http://www.w3.org/2000/svg">
<g id="Frame">
<path id="Vector" d="M41.6666 49.9997H20.8333C19.7282 49.9997 18.6684 49.5607 17.887 48.7793C17.1056 47.9979 16.6666 46.9381 16.6666 45.833V31.2497C16.6666 30.1446 17.1056 29.0848 17.887 28.3034C18.6684 27.522 19.7282 27.083 20.8333 27.083H37.5C38.605 27.083 39.6648 27.522 40.4462 28.3034C41.2276 29.0848 41.6666 30.1446 41.6666 31.2497V49.9997ZM41.6666 49.9997C41.6666 60.4163 37.5 66.6663 25 72.9163M83.3333 49.9997H62.5C61.3949 49.9997 60.3351 49.5607 59.5537 48.7793C58.7723 47.9979 58.3333 46.9381 58.3333 45.833V31.2497C58.3333 30.1446 58.7723 29.0848 59.5537 28.3034C60.3351 27.522 61.3949 27.083 62.5 27.083H79.1666C80.2717 27.083 81.3315 27.522 82.1129 28.3034C82.8943 29.0848 83.3333 30.1446 83.3333 31.2497V49.9997ZM83.3333 49.9997C83.3333 60.4163 79.1666 66.6663 66.6666 72.9163" stroke="#6DDDD0" stroke-width="6" stroke-linecap="round"/>
</g>
</svg>
