<svg width="60" height="61" viewBox="0 0 60 61" fill="none" xmlns="http://www.w3.org/2000/svg">
<g id="Exercice">
<rect id="Rectangle 1" x="14.7298" y="27.0716" width="30.5403" height="6.76669" fill="white" stroke="#4700BD" stroke-width="3.37047"/>
<rect id="Rectangle 2" x="45.2958" y="37.235" width="13.5591" height="6.76669" rx="2.80872" transform="rotate(-90 45.2958 37.235)" fill="white" stroke="#4700BD" stroke-width="3.37047" stroke-linejoin="round"/>
<rect id="Rectangle 4" x="14.7042" y="23.6751" width="13.5591" height="6.76669" rx="2.80872" transform="rotate(90 14.7042 23.6751)" fill="white" stroke="#4700BD" stroke-width="3.37047" stroke-linejoin="round"/>
<rect id="Rectangle 3" x="38.5035" y="43.4606" width="26.012" height="6.76669" rx="2.80872" transform="rotate(-90 38.5035 43.4606)" fill="white" stroke="#4700BD" stroke-width="3.37047" stroke-linejoin="round"/>
<rect id="Rectangle 5" x="21.4965" y="17.4495" width="26.012" height="6.76669" rx="2.80872" transform="rotate(90 21.4965 17.4495)" fill="white" stroke="#4700BD" stroke-width="3.37047" stroke-linejoin="round"/>
<path id="Vector 41" d="M56.32 39.0598C54.7417 40.7321 52.6608 41.8166 50.7757 43.0988C50.1275 43.5398 49.2808 43.8591 50.2818 44.2205C51.1813 44.5452 52.1064 44.932 52.9271 45.4275C53.7857 45.9458 52.8102 46.1956 52.275 46.4419C48.9268 47.9833 45.7384 48.9358 42.0755 49.2259" stroke="#D5C2F5" stroke-width="1.12349" stroke-linecap="round"/>
<path id="Vector 42" d="M4.47241 21.2566C5.85677 17.6968 9.3713 15.0517 12.6661 13.4043" stroke="#D5C2F5" stroke-width="1.12349" stroke-linecap="round"/>
<path id="Vector 43" d="M6.22641 14.5999C8.62212 11.614 12.9451 9.88546 16.6532 9.8553" stroke="#D5C2F5" stroke-width="1.12349" stroke-linecap="round"/>
</g>
</svg>
