<svg width="26" height="26" viewBox="0 0 26 26" fill="none" xmlns="http://www.w3.org/2000/svg">
<g id="Icon / Youtube">
<path id="Vector" d="M22.713 8.21836C22.5939 7.77643 22.3611 7.37339 22.0379 7.04938C21.7146 6.72537 21.3121 6.49167 20.8704 6.37155C19.2328 5.92188 12.6811 5.91456 12.6811 5.91456C12.6811 5.91456 6.13046 5.90724 4.49175 6.33704C4.05036 6.46269 3.64869 6.69969 3.32528 7.02529C3.00187 7.3509 2.7676 7.75417 2.64494 8.1964C2.21305 9.83406 2.20886 13.2307 2.20886 13.2307C2.20886 13.2307 2.20468 16.644 2.63344 18.265C2.87397 19.1612 3.57985 19.8691 4.47711 20.1107C6.1315 20.5604 12.6654 20.5677 12.6654 20.5677C12.6654 20.5677 19.2171 20.575 20.8547 20.1463C21.2966 20.0264 21.6994 19.7932 22.0235 19.4699C22.3476 19.1465 22.5817 18.7442 22.7026 18.3026C23.1355 16.666 23.1387 13.2704 23.1387 13.2704C23.1387 13.2704 23.1596 9.85602 22.713 8.21836ZM10.5854 16.3774L10.5906 10.1028L16.0359 13.2453L10.5854 16.3774Z" fill="#20282C"/>
</g>
</svg>
